<?xml version="1.0" encoding="UTF-8"?>
<svg id="Layer_2" data-name="Layer 2" xmlns="http://www.w3.org/2000/svg" viewBox="0 0 909 647" width="190px" height="auto">
  <defs>
    <style>
      .cls-1 {
        fill: #f7941d;
      }
      .cls-1, .cls-2 {
        stroke-width: 0px;
      }
      .cls-2 {
        fill: #231f20;
      }
    </style>
  </defs>
  <g>
    <path class="cls-1" d="m247.22,203.72c12.15-22.19,37.23-28.91,43.25-30.53,33.4-8.96,77.04,4.46,92.86,35.19,2.04,3.97,9.01,17.5,6.36,33.5-3.06,18.48-18.69,38.81-19.5,39.86-3.93,5.04-7.95,9.24-9.4,16.63-.38,1.96-1.16,7.08,2.19,18.99,1.83,6.5,5.05,15.61,11.02,25.86-26.43,1.1-52.86,2.2-79.29,3.3-1.55-5.62-3.11-11.25-4.66-16.87.01-1.22-.18-2.9-1.27-4.24-2.3-2.83-7.12-2.47-12.3-1.7-18.07,2.69-20.16,2.17-27.14,2.54-2.77.15-10.28-.27-10.74-6.5-.49-6.7,1.41-14.13,2.26-20.64-2.12-1.09-4.3-2.07-5.09-3.25-1.07-1.6.71-3.84,2.4-4.95-1.84-2.26-4.63-.97-5.21-4.15-.39-2.12.55-3.34,2.95-5.89l-1.41-4.38c-3.77-2.59-7.54-5.18-11.31-7.77-.16-.59-.37-1.6-.28-2.83,0,0,.56-2.08,1.98-3.39,3.24-2.99,9.6-10.29,15.83-20.07l1.98-27.56c.79-2.83,2.13-6.8,4.52-11.17Z"/>
    <path class="cls-2" d="m329.31,291.49l-7.7.2c-.1,0-.18-.08-.18-.18.07-9.47.14-18.94.21-28.41,0-.02,0-.04,0-.05-.51-1.66-1.7-4.62-4.44-7.18-4.24-3.95-9.45-4.35-11.02-4.45-4.8-.3-6.04,1.47-10.39,1.06-3.99-.38-7.08-2.26-9.04-3.76-.05-.04-.1-.05-.16-.02-2.1.82-14.72,5.41-25.36-1.52-1.82-1.18-6.72-4.38-8.27-10.18-2.04-7.66,2.57-16.95,11.8-22.85.05-.03.07-.07.08-.13.06-1.28.55-7.37,5.72-11.79,6.06-5.17,13.48-3.71,14.72-3.42.07.02.14-.01.18-.07.7-1.13,4.16-6.28,10.96-7.53,6.12-1.12,10.77,1.68,11.96,2.46.07.05.16.04.23-.01,1.2-1.06,5.1-4.19,10.92-4.36,7.04-.21,11.67,4.06,12.65,5.02.05.05.1.06.17.04,1.42-.43,10-2.78,17.5,2.57,4.82,3.44,6.6,8.22,7.18,10.08.02.06.06.1.13.11,1.2.23,6.05,1.35,9.02,5.92,1.77,2.72,2.07,5.43,2.12,6.78l.84,11.39s.01.07.04.1c1.07,1.28,3.06,4.05,3.57,8.02.95,7.38-4,12.68-4.84,13.53-.03.03-.04.05-.04.09-.26,2.26-1.08,6.49-4.02,10.76-4.24,6.15-10.17,8.41-12.28,9.11-.01,0-.03.01-.04.02-1.57,1.13-4.29,3.4-6.34,7.2-2.39,4.44-2.59,8.6-2.55,10.64,0,.1-.08.17-.17.18l-8.11.2c-.1,0-.19-.08-.18-.18.14-7.84.28-15.68.42-23.52,0-.02,0-.05.01-.07.78-1.82,2.18-4.5,4.65-7.18,2.5-2.7,5.1-4.32,6.88-5.24.07-.04.16-.02.21.04l5.54,6.15c.05.06.14.08.22.04l4.21-2.2c.07-.04.11-.11.09-.19-.24-1.1-.96-3.62-3.15-5.81,0,0-2.12-2.11-4.91-2.92-.06-.02-.16-.11-.18-.05,0,0,.16.05.18.05.27.06,1.36-1.63,2.15-5.78.33-1.71.67-4.18.64-7.28,0-.08.05-.15.13-.17,1.38-.32,3.23-.92,5.17-2.09,3.21-1.93,5.08-4.44,6.04-5.97.06-.1.01-.22-.09-.26l-3.5-1.36c-.07-.03-.14-.01-.19.04-1.15,1.29-3.44,3.44-6.92,4.36-.95.25-1.85.37-2.64.42-.07,0-.13-.03-.16-.09-.78-1.49-2.14-3.63-4.4-5.63-3.28-2.9-6.74-3.99-8.6-4.43-.06-.01-.1-.05-.12-.1-.16-.49-.63-2.17.24-3.94.63-1.28,1.63-1.95,2.15-2.23.1-.05.12-.18.05-.27l-2.53-3.11c-.05-.07-.14-.09-.22-.05-.77.42-2.33,1.4-3.48,3.33-1.16,1.94-1.28,3.8-1.28,4.7,0,.1-.08.18-.18.18h-7.11c-.08,0-.14-.05-.17-.12-.26-.8-.7-1.81-1.45-2.85-1.44-2.01-3.25-3.05-4.3-3.53-.09-.04-.13-.14-.1-.23.36-1.12.7-2.34,1.01-3.65.39-1.67.65-3.25.83-4.69.01-.1-.07-.19-.17-.2l-4.23-.19c-.12,0-.21.1-.18.22.22.88.48,2.61-.27,4.43-.61,1.48-1.61,2.32-2.12,2.76-3.77,3.19-11.15,2.84-12.42,2.76-.06,0-.11-.03-.13-.09-.61-1.11-1.66-2.68-3.35-4.16-2.09-1.83-4.22-2.71-5.56-3.13-.09-.03-.19.02-.22.11l-1.37,3.9c-.03.09.02.2.11.23,1.03.36,3.62,1.45,4.71,3.97,1.95,4.55-2.12,11.15-5.94,11.02-2.92-.1-4.93-4.09-5.27-4.82-.02-.04-.05-.06-.09-.08l-8.17-2.25c-.12-.03-.24.06-.23.19l.39,5.07c0,.1.1.18.2.16.77-.08,2.49-.13,4.27.87,2.31,1.31,3.12,3.51,3.34,4.27.03.1-.04.2-.14.22l-6.34,1.23s-.05,0-.08,0c-1-.3-2.41-.54-3.99-.2-4.66.99-6.56,6.08-6.93,7.21-.04.11.04.22.16.23l4.72.39c.08,0,.16-.05.19-.13l.77-2.5c.02-.07.08-.12.16-.13l11.52-.84s.02,0,.03,0c2.13-.56,6.24-1.96,10.16-5.51,4.23-3.83,6.03-8.16,6.76-10.3.02-.06.06-.09.12-.11,2.5-.54,5.09-1.17,7.75-1.89,1.51-.41,2.98-.83,4.42-1.26.02,0,.04,0,.07,0,.84.07,1.96.27,3.15.85,3.01,1.46,4.26,4.24,4.63,5.2.02.06.01.12-.03.17-.76.81-1.68,1.98-2.47,3.53-.62,1.2-.99,2.32-1.23,3.24-.02.09-.11.14-.19.12-1.32-.33-4.18-.83-7.48.25-4.38,1.43-6.64,4.68-7.34,5.81-.05.08-.03.17.04.23l2.31,1.92c.07.06.16.06.23,0,.94-.82,2.67-2.12,5.19-2.87,2.58-.77,4.8-.62,6.03-.44.07.01.13.06.14.14.31,1.6.77,3.42,1.46,5.39.63,1.78,1.33,3.33,2.01,4.67.05.11.2.13.28.04l3.31-3.11c.07-.06.07-.17.01-.24-2.88-3.52-3.79-8.03-2.23-11.74,1.05-2.51,2.94-3.96,3.99-4.64.02-.02.05-.02.08-.03,11.57-.72,20.62,4.97,22.22,12.09.28,1.23.86,4.88-1.91,9.75l-3.59,7.17s-.03.04-.05.06c-3.15,2.45-6.29,4.89-9.44,7.34l-1.08,2.16c-.16,9.2-.31,18.41-.47,27.61,0,.1-.08.17-.17.18Z"/>
  </g>
  <g>
    <path class="cls-1" d="m445.57,266.82c0,7.41-3.12,13.77-9.37,19.06-5.48,4.68-12.14,7.65-20,8.93-.29.04-.53.05-.71.05-.84,0-2.7-2.57-5.59-7.7-2.89-5.13-4.33-8.26-4.33-9.4,0-.4.27-.66.82-.77,5.29-1.21,8.8-2.23,10.52-3.07,3.8-1.9,5.7-4.71,5.7-8.44,0-2.37-1.24-5.02-3.73-7.94-4.31-4.97-6.65-7.72-7.01-8.27-2.52-3.8-3.78-8-3.78-12.6,0-6.68,3.09-12.23,9.26-16.65,5.04-3.65,11.23-6.03,18.57-7.12.4-.04.71-.05.93-.05.55,0,.99.44,1.31,1.31.95,2.67,3.16,7.49,6.63,14.46.11.22.16.4.16.55,0,.62-.33.93-.99.93-.29,0-.79-.05-1.48-.16-.69-.11-1.22-.16-1.59-.16-2.63,0-4.93.6-6.9,1.81-2.37,1.39-3.56,3.32-3.56,5.81,0,2.23,1.31,4.97,3.94,8.22,4.64,5.84,7.07,8.91,7.29,9.2,2.59,4.02,3.89,8.02,3.89,12Z"/>
    <path class="cls-1" d="m510.65,242.22c0,2.7-.13,6.76-.38,12.16-.26,5.41-.38,9.46-.38,12.16s.09,6.57.27,11.83c.18,5.26.28,9.19.28,11.78,0,.99-.46,1.61-1.37,1.86-1.39.36-4.33.55-8.82.55-3.98,0-6.76-.11-8.33-.33-.69-.11-1.13-.55-1.31-1.31l-.33-3.29c-.18-1.68-.44-2.52-.77-2.52.51,0-1.33,1.24-5.53,3.73-4.2,2.48-8.02,3.73-11.45,3.73-9.68,0-15.41-4.36-17.2-13.09-.8-4.05-1.2-9.93-1.2-17.64,0-8.33.68-14.9,2.03-19.72.4-1.5,1.15-2.25,2.25-2.25,1.68,0,4.24.02,7.67.06,3.43.04,5.99.05,7.67.05,1.13,0,1.7.48,1.7,1.42,0,.26-.04.64-.11,1.15-.77,4.97-1.15,10.01-1.15,15.12,0,6.35.2,10.7.6,13.04.66,4.02,3.05,6.03,7.18,6.03,1.61,0,3.35-.71,5.23-2.14s2.86-2.9,2.93-4.44c.07-1.35.11-10.52.11-27.5,0-1.21.09-1.92.27-2.14.22-.36.88-.55,1.97-.55,1.79,0,4.48.02,8.08.05,3.6.04,6.29.05,8.08.05,1.1,0,1.73.27,1.92.82.07.29.11.73.11,1.31Z"/>
    <path class="cls-1" d="m607.24,289.99c0,1.28-.55,1.99-1.64,2.14s-3.8.22-8.11.22-7.23-.11-8.33-.33-1.64-1.11-1.64-2.68c0-1.68.05-4.19.16-7.53s.16-5.85.16-7.53c0-6.39-.07-10.94-.22-13.64-.22-4.35-2.28-6.52-6.19-6.52-1.72,0-3.42.72-5.12,2.16-1.7,1.44-2.64,3.04-2.82,4.79-.15,1.53-.22,6.03-.22,13.48,0,1.72.05,4.32.16,7.81.11,3.49.17,6.11.17,7.86,0,1.21-.53,1.81-1.59,1.81h-16.6c-1.02,0-1.53-.75-1.53-2.25,0-1.72.05-4.29.16-7.72.11-3.43.16-6.03.16-7.78,0-1.35-.04-3.4-.11-6.14-.07-2.74-.11-4.8-.11-6.19,0-5.22-1.99-7.83-5.97-7.83-1.61,0-3.34.62-5.2,1.86-2.05,1.35-3.07,2.78-3.07,4.27,0,3.32.02,8.29.05,14.9.04,6.61.05,11.56.05,14.85,0,.91-.11,1.48-.33,1.7-.22.22-.79.36-1.7.44-1.64.15-4.24.22-7.78.22-2.3,0-4.91-.11-7.83-.33-.88-.07-1.4-.2-1.56-.38-.16-.18-.25-.73-.25-1.64,0-2.92.02-7.29.05-13.12.04-5.83.05-10.2.05-13.12,0-5.99-.44-12.73-1.32-20.22-.07-.44-.11-.77-.11-.99,0-.62.25-1.04.77-1.26.8-.33,2.32-.6,4.55-.82,2.74-.26,4.36-.42,4.88-.49.37-.07,1.81-.46,4.33-1.15,1.79-.51,3.23-.77,4.33-.77.69,0,1.06,1.27,1.1,3.81.04,2.54.18,3.81.44,3.81.36-.15.79-.4,1.26-.77,3.29-2.56,5.88-4.31,7.78-5.26,2.81-1.35,5.86-2.03,9.15-2.03s6.36.75,8.98,2.25c2.96,1.68,4.88,4.04,5.75,7.07,1.93-2.63,4.6-4.84,8-6.63,3.4-1.79,6.7-2.68,9.92-2.68,4.82,0,8.75,1.11,11.78,3.34,3.43,2.52,5.15,6.12,5.15,10.79,0,1.94-.05,4.85-.16,8.74-.11,3.89-.17,6.8-.17,8.74,0,2.3.05,5.76.17,10.38.11,4.62.16,8.08.16,10.38Z"/>
    <path class="cls-1" d="m690.29,290.65c0,.66-.46,1.11-1.37,1.37-1.1.29-4.49.44-10.19.44-5.22,0-8.58-.15-10.08-.44-1.24-.25-2.03-1.08-2.36-2.47-1.24-5.26-2.21-8.07-2.9-8.44-.58-.25-5.48-.38-14.68-.38-6.21,0-9.51.16-9.92.49-.62.58-1.31,2.54-2.08,5.86-.69,3.03-1.53,4.68-2.52,4.93-1.24.29-5.41.44-12.49.44-5.59,0-8.38-.53-8.38-1.59,0-.95,4.13-12.62,12.38-35.01,8.95-24.21,13.8-37.53,14.57-39.94.44-1.39.95-2.08,1.53-2.08.99,0,2.51.09,4.57.27,2.06.18,3.61.27,4.63.27s2.44-.06,4.36-.19c1.92-.13,3.35-.19,4.3-.19.69,0,1.33.6,1.92,1.81,1.79,3.83,7.01,16.98,15.67,39.44,8.69,22.61,13.04,34.4,13.04,35.39Zm-38.84-49.91c-.77,1.61-2.06,5.1-3.89,10.46-1.97,5.7-2.96,9.04-2.96,10.03,0,.66,1.1,1.02,3.29,1.1,1.13.07,3,.11,5.59.11,2.41,0,3.74-.29,4-.88.07-.18.11-.44.11-.77,0-1.21-.84-4.53-2.52-9.97-1.64-5.26-2.85-8.62-3.62-10.08Z"/>
    <path class="cls-1" d="m718.12,251.54c0,4.31.11,10.79.33,19.45.22,8.66.33,15.14.33,19.45,0,.73-.16,1.19-.49,1.37-.07.04-.55.11-1.42.22-2.38.29-5.55.44-9.53.44-5.33,0-8.73-.15-10.19-.44-1.06-.22-1.59-.79-1.59-1.7,0,.58.17-2.63.49-9.64.66-14.79.99-24.51.99-29.14,0-3.91-.13-9.77-.38-17.59-.26-7.81-.38-13.68-.38-17.59,0-.8.42-1.21,1.26-1.21,1.13,0,2.84.05,5.12.16,2.28.11,3.99.16,5.12.16s2.8-.05,5.01-.16c2.21-.11,3.88-.16,5.01-.16,1.06,0,1.59.4,1.59,1.21,0,3.91-.21,9.77-.63,17.59-.42,7.82-.63,13.68-.63,17.59Z"/>
  </g>
  <g>
    <path class="cls-2" d="m424.97,322.01c0,2.44-.67,4.55-2,6.31-1.36,1.81-3.22,2.97-5.57,3.47.46.94,1.14,1.8,2.05,2.58.08.06.12.12.12.18,0,.37-1.13.55-3.39.55-1.66,0-2.69-.06-3.07-.19-.21-.07-.34-.24-.4-.51-.11-.53-.15-1.42-.11-2.66-2.25-.56-4.04-1.75-5.36-3.56-1.29-1.75-1.93-3.81-1.93-6.17,0-2.86.92-5.26,2.76-7.21,1.87-1.99,4.23-2.99,7.07-2.99s5.17,1,7.06,3c1.85,1.96,2.77,4.35,2.77,7.19Zm-5.22-.03c0-1.41-.41-2.6-1.23-3.54-.86-.99-1.99-1.49-3.38-1.49s-2.57.49-3.4,1.47c-.8.93-1.2,2.12-1.2,3.58s.39,2.68,1.17,3.58c.82.96,1.96,1.43,3.43,1.43s2.56-.49,3.4-1.47c.8-.94,1.2-2.13,1.2-3.57Z"/>
    <path class="cls-2" d="m441.11,319.13c0,.68-.03,1.7-.1,3.06-.06,1.36-.1,2.38-.1,3.06s.02,1.65.07,2.98.07,2.31.07,2.96c0,.25-.12.4-.34.47-.35.09-1.09.14-2.22.14-1,0-1.7-.03-2.09-.08-.17-.03-.29-.14-.33-.33-.03-.28-.05-.55-.08-.83-.05-.42-.11-.63-.19-.63.13,0-.34.31-1.39.94-1.06.62-2.02.94-2.88.94-2.44,0-3.88-1.1-4.33-3.29-.2-1.02-.3-2.5-.3-4.44,0-2.09.17-3.75.51-4.96.1-.38.29-.56.56-.56.42,0,1.07,0,1.93.01.86,0,1.51.01,1.93.01.28,0,.43.12.43.36,0,.06,0,.16-.03.29-.19,1.25-.29,2.52-.29,3.8,0,1.6.05,2.69.15,3.28.17,1.01.77,1.52,1.8,1.52.4,0,.84-.18,1.32-.54s.72-.73.74-1.12c.02-.34.03-2.65.03-6.92,0-.3.02-.48.07-.54.05-.09.22-.14.5-.14.45,0,1.13,0,2.03.01.9,0,1.58.01,2.03.01.28,0,.44.07.48.21.02.07.03.18.03.33Z"/>
    <path class="cls-2" d="m448.48,325.33c0,.67.01,1.67.04,3,.03,1.33.04,2.32.04,2.98,0,.19-.12.31-.34.34-.31.05-1.02.08-2.11.08s-1.81-.03-2.12-.08c-.2-.04-.33-.1-.37-.18-.02-.04-.03-.17-.03-.41,0-.63.01-1.59.04-2.86.03-1.27.04-2.23.04-2.87,0-2.61-.1-4.69-.3-6.23-.02-.15-.03-.24-.03-.29,0-.18.12-.28.37-.28s.65.03,1.18.08.93.08,1.19.08.67-.02,1.2-.07c.53-.05.93-.07,1.2-.07.22,0,.33.09.33.28,0,.04,0,.12-.03.26-.2,1.79-.3,3.87-.3,6.23Zm.36-10.24c0,1.6-.9,2.4-2.7,2.4-.77,0-1.41-.2-1.92-.61-.55-.44-.83-1.04-.83-1.79s.28-1.3.85-1.76c.52-.42,1.15-.63,1.89-.63s1.34.22,1.86.65c.56.46.84,1.04.84,1.75Z"/>
    <path class="cls-2" d="m460.27,322.59s-.29-.07-.83-.22c-.55-.15-.99-.22-1.33-.22-.82,0-1.47.25-1.96.74-.49.49-.73,1.15-.73,1.96s.27,1.51.8,1.99,1.23.72,2.08.72c.4,0,.86-.1,1.36-.31.5-.21.74-.31.72-.31.16,0,.36.58.61,1.75.21,1.07.32,1.77.32,2.12s-.57.65-1.71.9c-.88.19-1.59.29-2.14.29-2.02,0-3.69-.68-5-2.04-1.31-1.36-1.97-3.05-1.97-5.09s.66-3.7,1.98-5.08c1.32-1.37,2.98-2.06,5-2.06,1.37,0,2.57.29,3.61.88.24.13.36.25.36.37s-.14.66-.41,1.63c-.26.93-.42,1.49-.5,1.68s-.16.29-.24.29Z"/>
    <path class="cls-2" d="m478.2,322.66c0,2.03-1,3.57-2.99,4.63-.18.09-.28.19-.28.29,0,.16.43.81,1.28,1.95.85,1.14,1.28,1.74,1.28,1.8,0,.25-1.22.37-3.65.37-.94,0-1.48-.12-1.63-.36-.37-.62-.94-1.5-1.72-2.65-.05-.06-.87-.12-2.48-.19,0,.29,0,.74.01,1.36,0,.62.01,1.09.01,1.39,0,.28-.13.43-.4.46-.17.02-.89.03-2.18.03-1.11,0-1.76-.02-1.94-.05-.25-.05-.37-.23-.37-.57v-8.43c0-1.13-.04-2.82-.12-5.07-.08-2.25-.12-3.94-.12-5.06,0-.22.12-.34.37-.34.49,0,1.22,0,2.19-.03.26-.02.7-.07,1.34-.17.56-.08,1-.12,1.32-.12.15,0,.22.13.22.4,0,.35-.03.82-.08,1.42-.06.7-.1,1.18-.11,1.43-.08,1.98-.12,3.51-.12,4.59,0,.26.03.39.1.4.08-.06.19-.16.33-.3,1.19-1.24,2.65-1.86,4.36-1.86,1.61,0,2.88.37,3.83,1.1,1.04.82,1.56,2.01,1.56,3.58Zm-5.47.9c0-1.11-.63-1.67-1.89-1.67-.56,0-1.16.21-1.79.63-.68.45-1.02.94-1.02,1.47,0,.76.11,1.22.32,1.38.17.11.69.17,1.58.17,1.87,0,2.8-.66,2.8-1.98Z"/>
    <path class="cls-2" d="m503.43,331.52c0,.06-.09.11-.28.14-.35.05-1.23.08-2.63.08-1.2,0-2.02-.03-2.45-.08-.2-.03-.32-.05-.34-.07-.06-.03-.12-.12-.19-.28-.14-.36-.34-.89-.61-1.6-.36-.92-.92-2.27-1.68-4.07-.17-.36-.55-.56-1.14-.59.28.02-.2.03-1.42.03-.14,0-.21.23-.21.7,0,.62.06,1.56.17,2.8.12,1.24.17,2.17.17,2.8,0,.16-.04.25-.12.28-.13,0-.26.02-.39.03-.54.04-1.39.05-2.54.05-1.31,0-2.1-.03-2.37-.08-.27-.06-.4-.2-.4-.43,0-1.01.05-2.54.15-4.58.1-2.04.14-3.57.14-4.59,0-3.89-.09-6.92-.26-9.1v-.19c-.02-.16.12-.26.42-.32.3-.06,1.7-.11,4.21-.17,1.7-.04,3.06-.06,4.07-.06,2.09,0,3.8.47,5.13,1.42,1.5,1.07,2.25,2.6,2.25,4.62,0,1.34-.19,2.41-.58,3.21s-1.1,1.58-2.14,2.33c-.21.15-.32.28-.32.41,0,0,.56,1.14,1.68,3.46,1.12,2.32,1.68,3.59,1.68,3.83Zm-5.79-12.36c0-1.12-.37-1.9-1.1-2.33-.57-.33-1.46-.5-2.67-.5-.87,0-1.34.13-1.39.4-.05.31-.08,1.21-.08,2.7,0,.21,0,.52.01.94,0,.41.01.72.01.92,0,.05.15.09.44.14.56.08,1.15.12,1.76.12,2.01,0,3.02-.8,3.02-2.4Z"/>
    <path class="cls-2" d="m517.52,324.17c0,.93-.3,1.46-.9,1.59-.1.02-1.05.12-2.85.3-1.08.12-2.7.26-4.85.43.13.6.52,1.05,1.17,1.36.53.26,1.14.39,1.82.39.82,0,1.64-.22,2.47-.66.35-.22.7-.44,1.05-.66.19.09.52.56.97,1.41.46.84.68,1.38.68,1.61,0,.06-.07.17-.21.32-1.12,1.2-2.86,1.81-5.22,1.81-2.19,0-3.95-.64-5.29-1.92-1.38-1.29-2.07-3.03-2.07-5.2s.62-3.85,1.85-5.2c1.27-1.4,2.95-2.1,5.04-2.1,1.76,0,3.26.64,4.49,1.93,1.23,1.29,1.85,2.82,1.85,4.59Zm-4.82-.84c0-.57-.2-1.07-.61-1.5-.4-.43-.89-.65-1.45-.65s-1.06.24-1.43.73c-.35.45-.52.98-.52,1.58,0,.25.13.37.39.37.68,0,1.74-.11,3.17-.32.3-.05.45-.12.45-.22Z"/>
    <path class="cls-2" d="m532.88,324.76c0,.71.04,1.76.12,3.16.08,1.4.12,2.44.12,3.14,0,.37-.16.57-.48.59-1.14.08-2.44.12-3.91.12-.17,0-.29-.26-.35-.79s-.13-.8-.21-.81c-.07.04-.17.11-.29.23-1.03,1.04-2.13,1.56-3.31,1.56-1.79,0-3.28-.71-4.45-2.12-1.11-1.32-1.67-2.9-1.67-4.74,0-2.12.57-3.83,1.72-5.13,1.19-1.34,2.83-2.01,4.91-2.01,1.44,0,2.58.51,3.42,1.52.04.05.07.07.1.07.08,0,.18-.22.28-.67.11-.45.23-.67.38-.67.34,0,.99.1,1.94.29.91.18,1.56.34,1.96.47.14.06.21.13.21.22,0,.04-.01.13-.04.29-.29,1.66-.44,3.42-.44,5.28Zm-4.44.08c0-.78-.25-1.43-.74-1.94-.49-.51-1.13-.76-1.92-.76s-1.43.25-1.92.76-.73,1.15-.73,1.94c0,.74.26,1.38.77,1.92s1.14.8,1.88.8c.78,0,1.42-.25,1.92-.76s.74-1.16.74-1.95Z"/>
    <path class="cls-2" d="m550.23,312.1c0-.2-.04.1-.11.91-.1,1.02-.18,2.32-.23,3.91-.07,1.8-.11,3.85-.11,6.15,0,3.79.11,6.5.32,8.1.02.17.03.29.03.33,0,.1-.07.16-.21.18-.33.05-1.55.07-3.65.07-.5,0-.78-.1-.85-.29-.02-.35-.04-.7-.05-1.05,0-.07-.05-.15-.11-.22-.05.03-.12.08-.21.17-.99.97-2.23,1.46-3.72,1.46-1.94,0-3.49-.68-4.66-2.04-1.11-1.29-1.67-2.93-1.67-4.91s.55-3.65,1.64-4.95c1.16-1.38,2.72-2.07,4.69-2.07,1.39,0,2.47.44,3.24,1.32.13.15.22.22.28.22.08,0,.12-.12.12-.36,0-.71-.02-1.76-.06-3.17-.04-1.41-.05-2.46-.05-3.16,0-.27.07-.42.22-.46.59-.03,1.4-.08,2.42-.17,1.84-.23,2.65-.34,2.44-.34.2,0,.3.12.3.34Zm-5.2,12.67c0-.73-.25-1.36-.76-1.91-.5-.55-1.12-.82-1.83-.82-.75,0-1.35.27-1.8.82-.45.55-.67,1.2-.67,1.96s.23,1.37.68,1.89c.46.55,1.06.83,1.79.83s1.35-.28,1.85-.83c.5-.55.74-1.2.74-1.94Z"/>
    <path class="cls-2" d="m560.34,320.51c0,.09-.07.22-.21.37-.26-.06-.51-.1-.77-.1-.54,0-1,.12-1.36.36-.44.28-.66.67-.66,1.17,0,.32.23.73.7,1.23.71.74,1.14,1.25,1.31,1.5.47.7.7,1.45.7,2.25,0,.47-.09.96-.28,1.49-.21.58-.48,1-.8,1.27-.68.59-1.47,1.08-2.38,1.49-.98.42-1.89.63-2.71.63-.18,0-.6-.5-1.23-1.5-.64-1-.96-1.61-.96-1.83,0-.08.05-.13.15-.15.64-.12,1.29-.24,1.94-.36.81-.26,1.21-.68,1.21-1.27,0-.4-.23-.87-.7-1.41-.84-.93-1.27-1.42-1.31-1.48-.47-.66-.7-1.36-.7-2.09,0-1.38.7-2.55,2.09-3.51,1.25-.85,2.59-1.28,4.01-1.28.15,0,.51.49,1.09,1.48.58.99.87,1.56.87,1.73Z"/>
    <path class="cls-2" d="m568.36,327.01c0,2.5-.92,4.63-2.77,6.39-.29.28-.75.64-1.38,1.1-.76.55-1.25.83-1.47.83-.14,0-.46-.29-.98-.88-.51-.59-.77-.97-.77-1.14,0-.1.17-.34.51-.73.42-.47.74-.9.95-1.29.34-.63.51-1.32.51-2.07,0-.12-.02-.29-.05-.52-.03-.23-.05-.39-.05-.5,0-.22.08-.41.23-.58.11-.11.87-.34,2.29-.69,1.37-.33,2.18-.5,2.42-.5.37,0,.55.19.55.58Z"/>
    <path class="cls-2" d="m593.69,325.7c0,1.69-.53,3.09-1.58,4.2-1.2,1.28-3.32,1.92-6.34,1.92-.23,0-.56,0-.99-.01h-.98c-3.39,0-5.41-.07-6.05-.21-.27-.05-.4-.2-.4-.43,0-.98.06-2.47.17-4.47.12-1.99.17-3.49.17-4.48,0-1.07-.06-3.07-.17-6.01-.03-.75-.08-1.88-.15-3.39v-.19c-.02-.17.12-.28.42-.32.3-.04,1.36-.06,3.19-.06,2.93,0,4.64,0,5.14.03,2.26.08,3.93.45,5,1.1,1.42.87,2.14,2.35,2.14,4.42,0,.54-.17,1.12-.5,1.72-.24.43-.55.86-.94,1.3-.34.38-.51.55-.51.52,0,.06.12.17.36.3.64.37,1.15.95,1.52,1.75.33.72.5,1.48.5,2.29Zm-5.93-7.76c0-.79-.4-1.31-1.19-1.57-.44-.14-1.17-.21-2.18-.21s-1.49.07-1.49.22c0,.17-.02.44-.05.79-.03.35-.05.62-.05.79,0,.92.08,1.43.23,1.54.1.08.68.12,1.75.12,1.97,0,2.96-.56,2.96-1.7Zm.41,7.7c0-.83-.34-1.39-1.03-1.68-.44-.18-1.16-.28-2.15-.28-1.18,0-1.83.04-1.93.13-.1.09-.15.65-.15,1.69s.06,1.68.18,1.8c.12.12.78.17,1.98.17.99,0,1.69-.08,2.09-.23.67-.27,1.01-.8,1.01-1.6Z"/>
    <path class="cls-2" d="m600.44,325.33c0,.67.01,1.67.04,3,.03,1.33.04,2.32.04,2.98,0,.19-.12.31-.34.34-.31.05-1.02.08-2.11.08s-1.81-.03-2.12-.08c-.2-.04-.33-.1-.37-.18-.02-.04-.03-.17-.03-.41,0-.63.01-1.59.04-2.86.03-1.27.04-2.23.04-2.87,0-2.61-.1-4.69-.3-6.23-.02-.15-.03-.24-.03-.29,0-.18.12-.28.37-.28s.65.03,1.18.08.93.08,1.19.08.67-.02,1.2-.07c.53-.05.93-.07,1.2-.07.22,0,.33.09.33.28,0,.04,0,.12-.03.26-.2,1.79-.3,3.87-.3,6.23Zm.36-10.24c0,1.6-.9,2.4-2.7,2.4-.77,0-1.41-.2-1.92-.61-.55-.44-.83-1.04-.83-1.79s.28-1.3.85-1.76c.52-.42,1.15-.63,1.89-.63s1.34.22,1.86.65c.56.46.84,1.04.84,1.75Z"/>
    <path class="cls-2" d="m616.83,328.07c0,2.62-.55,4.5-1.65,5.64-1.14,1.17-3.03,1.75-5.68,1.75-.77,0-1.82-.12-3.16-.37-1.7-.31-2.55-.68-2.55-1.1,0-.17.2-1.08.59-2.7.06-.26.17-.39.3-.39.04,0,.1.03.15.05,1.41.7,2.72,1.05,3.93,1.05.66,0,1.32-.17,1.97-.5.79-.4,1.19-.89,1.19-1.49v-.92c-.94.88-2.14,1.32-3.61,1.32-1.73,0-3.15-.62-4.26-1.86-1.07-1.19-1.61-2.66-1.61-4.41s.51-3.21,1.54-4.37c1.08-1.2,2.48-1.81,4.22-1.81,1.39,0,2.45.5,3.18,1.49.15.2.25.3.3.3.08,0,.12-.17.12-.5,0-.73.08-1.1.25-1.1.15,0,.94.08,2.38.23,1.44.15,2.19.24,2.25.26.16.05.23.17.23.36,0,.63-.02,1.58-.06,2.84s-.06,2.21-.06,2.84c0,.38,0,.94.01,1.7,0,.75.01,1.32.01,1.69Zm-4.77-3.82c0-.67-.22-1.25-.67-1.74s-1-.74-1.67-.74-1.23.25-1.67.75c-.45.5-.67,1.09-.67,1.76s.23,1.25.68,1.74,1.01.73,1.66.73,1.23-.25,1.67-.74.67-1.08.67-1.75Z"/>
    <path class="cls-2" d="m631.96,321.47c0,1.08.03,2.71.08,4.89.05,2.18.08,3.81.08,4.89,0,.18-.04.3-.12.34-.02,0-.14.03-.36.06-.6.07-1.4.11-2.4.11-1.34,0-2.2-.04-2.56-.11-.27-.06-.4-.2-.4-.43,0,.15.04-.66.12-2.43.17-3.72.25-6.16.25-7.33,0-.98-.03-2.46-.1-4.42-.06-1.97-.1-3.44-.1-4.42,0-.2.11-.3.32-.3.28,0,.71.01,1.29.04s1,.04,1.29.04.71-.01,1.26-.04.98-.04,1.26-.04c.27,0,.4.1.4.3,0,.98-.05,2.46-.16,4.42-.11,1.97-.16,3.44-.16,4.42Z"/>
    <path class="cls-2" d="m648.37,331.25c0,.25-.13.39-.39.43-.26.04-.93.05-2.01.05-1.16,0-1.87-.03-2.15-.08-.28-.06-.41-.24-.41-.57,0-.43.01-1.08.04-1.96s.04-1.53.04-1.97c0-.34,0-.85-.03-1.52-.02-.68-.03-1.18-.03-1.52,0-1.26-.55-1.89-1.64-1.89-.36,0-.78.16-1.25.47-.51.35-.77.69-.77,1.03v7.44c0,.3-.14.47-.43.51-.32.04-.98.05-1.97.05-1.08,0-1.77-.03-2.09-.08-.29-.05-.43-.2-.43-.46,0-.72,0-1.8.01-3.24s.01-2.53.01-3.25c0-2.29-.18-4.08-.54-5.39-.02-.08-.03-.15-.03-.21,0-.15.07-.25.21-.3.58-.06,1.35-.17,2.32-.3,1.46-.28,2.28-.43,2.47-.43.1,0,.18.31.23.93.06.62.13.93.23.93-.1,0,.39-.32,1.48-.96s2.04-.96,2.86-.96c1.17,0,2.14.28,2.92.83.87.63,1.31,1.52,1.31,2.65v4.4c0,.6,0,1.49.01,2.68,0,1.19.01,2.08.01,2.68Z"/>
    <path class="cls-2" d="m658.74,320.51c0,.09-.07.22-.21.37-.26-.06-.51-.1-.77-.1-.54,0-1,.12-1.36.36-.44.28-.66.67-.66,1.17,0,.32.23.73.7,1.23.71.74,1.14,1.25,1.31,1.5.47.7.7,1.45.7,2.25,0,.47-.09.96-.28,1.49-.21.58-.48,1-.8,1.27-.68.59-1.47,1.08-2.38,1.49-.98.42-1.89.63-2.71.63-.18,0-.6-.5-1.23-1.5-.64-1-.96-1.61-.96-1.83,0-.08.05-.13.15-.15.64-.12,1.29-.24,1.94-.36.81-.26,1.21-.68,1.21-1.27,0-.4-.23-.87-.7-1.41-.84-.93-1.27-1.42-1.31-1.48-.47-.66-.7-1.36-.7-2.09,0-1.38.7-2.55,2.09-3.51,1.25-.85,2.59-1.28,4.01-1.28.15,0,.51.49,1.09,1.48.58.99.87,1.56.87,1.73Z"/>
    <path class="cls-2" d="m665.82,325.33c0,.67.01,1.67.04,3,.03,1.33.04,2.32.04,2.98,0,.19-.12.31-.34.34-.31.05-1.02.08-2.11.08s-1.81-.03-2.12-.08c-.2-.04-.33-.1-.37-.18-.02-.04-.03-.17-.03-.41,0-.63.01-1.59.04-2.86.03-1.27.04-2.23.04-2.87,0-2.61-.1-4.69-.3-6.23-.02-.15-.03-.24-.03-.29,0-.18.12-.28.37-.28s.65.03,1.18.08.93.08,1.19.08.67-.02,1.2-.07c.53-.05.93-.07,1.2-.07.22,0,.33.09.33.28,0,.04,0,.12-.03.26-.2,1.79-.3,3.87-.3,6.23Zm.36-10.24c0,1.6-.9,2.4-2.7,2.4-.77,0-1.41-.2-1.92-.61-.55-.44-.83-1.04-.83-1.79s.28-1.3.85-1.76c.52-.42,1.15-.63,1.89-.63s1.34.22,1.86.65c.56.46.84,1.04.84,1.75Z"/>
    <path class="cls-2" d="m682.21,328.07c0,2.62-.55,4.5-1.65,5.64-1.14,1.17-3.03,1.75-5.68,1.75-.77,0-1.82-.12-3.16-.37-1.7-.31-2.55-.68-2.55-1.1,0-.17.2-1.08.59-2.7.06-.26.17-.39.3-.39.04,0,.1.03.15.05,1.41.7,2.72,1.05,3.93,1.05.66,0,1.32-.17,1.97-.5.79-.4,1.19-.89,1.19-1.49v-.92c-.94.88-2.14,1.32-3.61,1.32-1.73,0-3.15-.62-4.26-1.86-1.07-1.19-1.61-2.66-1.61-4.41s.51-3.21,1.54-4.37c1.08-1.2,2.48-1.81,4.22-1.81,1.39,0,2.45.5,3.18,1.49.15.2.25.3.3.3.08,0,.12-.17.12-.5,0-.73.08-1.1.25-1.1.15,0,.94.08,2.38.23,1.44.15,2.19.24,2.25.26.16.05.23.17.23.36,0,.63-.02,1.58-.06,2.84s-.06,2.21-.06,2.84c0,.38,0,.94.01,1.7,0,.75.01,1.32.01,1.69Zm-4.77-3.82c0-.67-.22-1.25-.67-1.74s-1-.74-1.67-.74-1.23.25-1.67.75c-.45.5-.67,1.09-.67,1.76s.23,1.25.68,1.74,1.01.73,1.66.73,1.23-.25,1.67-.74.67-1.08.67-1.75Z"/>
    <path class="cls-2" d="m698.35,321.66l-.03,9.51c0,.32-.13.5-.39.54-.29.04-.96.06-2.01.06s-1.71-.04-2.11-.11c-.3-.06-.46-.25-.46-.59,0-.79.01-1.98.04-3.57.03-1.59.04-2.78.04-3.57,0-1.08-.55-1.61-1.64-1.61-.37,0-.8.15-1.29.44-.54.32-.81.66-.81,1.01v3.4c0,.44,0,1.1.03,1.99s.03,1.55.03,1.99c0,.34-.14.53-.43.56s-1.08.06-2.4.06c-.75,0-1.3-.04-1.63-.11-.33-.07-.5-.23-.5-.48,0-.73,0-1.82.01-3.27,0-1.46.01-2.55.01-3.27,0-3-.03-5.49-.1-7.46-.03-.69-.05-1.38-.07-2.07-.05-.8-.13-1.48-.25-2.05-.03-.12-.04-.21-.04-.26,0-.14.07-.23.21-.28.29-.08.7-.13,1.25-.15.73-.03,1.16-.05,1.28-.07l2.5-.29c.15,0,.22.1.22.29,0,.29-.02.69-.05,1.2-.04.59-.06.99-.06,1.2-.05,2.08-.08,3.72-.08,4.92,0,.18.05.28.14.28.02,0,.25-.16.7-.48.53-.38,1.04-.68,1.53-.9.73-.32,1.43-.48,2.11-.48,1.18,0,2.16.31,2.95.92.85.66,1.28,1.57,1.28,2.71Z"/>
    <path class="cls-2" d="m709.81,327.62c0,.28-.03.69-.1,1.25s-.1.97-.1,1.23-.03.43-.08.5c-.05.07-.21.18-.45.32-1.19.65-2.5.98-3.94.98-2.66,0-3.98-1.02-3.98-3.05,0-.61.02-1.52.07-2.74.05-1.22.07-2.13.07-2.74,0-.4-.23-.61-.7-.61h-.18c-.08,0-.14.01-.18.01-.35,0-.52-.12-.52-.37,0-.15.01-.37.04-.68.02-.3.03-.53.03-.68,0-.19-.01-.49-.03-.88-.02-.4-.04-.69-.04-.88s.29-.28.88-.3c.33,0,.51-.1.54-.28.05-.35.07-.9.05-1.65-.04-1.19-.05-1.75-.05-1.7,0-1.07.1-1.6.3-1.6.25,0,.6.06,1.06.17.52.12.89.19,1.09.21.47.06,1.18.15,2.12.26.23.02.34.1.34.23,0,.37-.03.92-.09,1.67-.06.74-.09,1.3-.09,1.68,0,.45.13.68.4.68.32,0,.81-.01,1.46-.04.65-.03,1.14-.04,1.47-.04.2,0,.3.07.3.21,0,.21-.02.53-.07.95-.05.42-.07.74-.07.95s0,.54.01.96c0,.42.01.74.01.96,0,.19-.13.29-.4.29-.18,0-.49,0-.92-.02-.43-.01-.74-.02-.92-.02h-1.03c-.14,0-.21.2-.21.61v.98c0,.44.01.77.01.98,0,.77.09,1.3.26,1.6.25.4.74.59,1.46.59.23,0,.56-.05.99-.16.43-.11.73-.16.9-.16.19,0,.29.1.29.3Z"/>
    <path class="cls-2" d="m719.32,320.51c0,.09-.07.22-.21.37-.26-.06-.51-.1-.77-.1-.54,0-1,.12-1.36.36-.44.28-.66.67-.66,1.17,0,.32.23.73.7,1.23.71.74,1.14,1.25,1.31,1.5.47.7.7,1.45.7,2.25,0,.47-.09.96-.28,1.49-.21.58-.48,1-.8,1.27-.68.59-1.47,1.08-2.38,1.49-.98.42-1.89.63-2.71.63-.18,0-.6-.5-1.23-1.5-.64-1-.96-1.61-.96-1.83,0-.08.05-.13.15-.15.64-.12,1.29-.24,1.94-.36.81-.26,1.21-.68,1.21-1.27,0-.4-.23-.87-.7-1.41-.84-.93-1.27-1.42-1.31-1.48-.47-.66-.7-1.36-.7-2.09,0-1.38.7-2.55,2.09-3.51,1.25-.85,2.59-1.28,4.01-1.28.15,0,.51.49,1.09,1.48.58.99.87,1.56.87,1.73Z"/>
  </g>
</svg>